Results
version=1
nRows=29
nColumns=24
inDegrees=yes
endheader
time	pelvis_tilt	pelvis_list	pelvis_rotation	pelvis_tx	pelvis_ty	pelvis_tz	hip_flexion_r	hip_adduction_r	hip_rotation_r	knee_angle_r	ankle_angle_r	subtalar_angle_r	mtp_angle_r	hip_flexion_l	hip_adduction_l	hip_rotation_l	knee_angle_l	ankle_angle_l	subtalar_angle_l	mtp_angle_l	lumbar_extension	lumbar_bending	lumbar_rotation
      0.55800000	     -2.38791845	      8.04811101	     -4.34121875	     -0.78555857	      0.97593607	      0.27458399	     28.88042318	     -6.76059546	      0.57079517	     -0.19966786	     -1.64895428	     -2.57893519	      7.71685009	    -16.45549789	     12.65765072	      7.46638101	      1.66092615	     11.73900861	    -10.85006688	     -3.07228891	    -10.35580357	     -0.62468721	     -7.68183281
      0.56216667	     -2.48150309	      7.92728750	     -4.33977023	     -0.77992009	      0.97500540	      0.27500967	     28.97449671	     -6.58462521	      0.83190642	     -0.47215534	     -1.76090093	     -2.74828649	      7.73521826	    -16.51784075	     12.53625719	      7.46629767	      1.24606499	     12.01114132	    -10.79510185	     -3.04469156	    -10.25376398	     -0.45898931	     -7.59728380
      0.56633333	     -2.55225544	      7.78748362	     -4.36591723	     -0.77425683	      0.97415234	      0.27551299	     29.02917644	     -6.37471127	      1.20638600	     -0.77062581	     -2.07573606	     -3.25429663	      7.75354936	    -16.58282714	     12.40423629	      7.36077379	      0.79281817	     12.29025268	    -10.63894166	     -3.00011667	    -10.16595059	     -0.27711214	     -7.51658477
      0.57050000	     -2.61887857	      7.61979222	     -4.39467899	     -0.76854869	      0.97335736	      0.27603259	     29.08111951	     -6.13760120	      1.57311372	     -1.14605310	     -2.39231373	     -3.76302728	      7.77089343	    -16.64530084	     12.24465917	      7.25258280	      0.31981780	     12.56323960	    -10.49061407	     -2.94584999	    -10.09082575	     -0.05922438	     -7.42868432
      0.57466667	     -2.68645992	      7.43248661	     -4.42972553	     -0.76280673	      0.97261123	      0.27658176	     29.14270974	     -5.87656490	      1.93907311	     -1.59785263	     -2.75242692	     -4.31815336	      7.78475600	    -16.69472114	     12.06762802	      7.13208502	     -0.18459524	     12.81693112	    -10.35911815	     -2.88206184	    -10.01538902	      0.17977254	     -7.32884102
      0.57883333	     -2.76331953	      7.23175967	     -4.47097467	     -0.75702195	      0.97189864	      0.27714777	     29.22447631	     -5.59775233	      2.29942023	     -2.12127222	     -3.14607940	     -4.90160369	      7.79249691	    -16.72633808	     11.87916964	      7.00858831	     -0.70426820	     13.04392146	    -10.23575426	     -2.81078636	     -9.92445896	      0.43887685	     -7.21952199
      0.58300000	     -2.84331159	      7.01867272	     -4.51855950	     -0.75120542	      0.97123023	      0.27774238	     29.31890831	     -5.30130882	      2.64874571	     -2.70630140	     -3.58057617	     -5.51861934	      7.79386088	    -16.73906220	     11.68108343	      6.86783463	     -1.26356864	     13.25274732	    -10.12274804	     -2.72903713	     -9.83184378	      0.70994897	     -7.10282680
      0.58716667	     -2.92036024	      6.79305824	     -4.57608636	     -0.74535335	      0.97061138	      0.27836730	     29.42017079	     -4.98718385	      2.98809909	     -3.34816229	     -4.03663014	     -6.13820678	      7.78765707	    -16.74553344	     11.47331464	      6.72712368	     -1.83899722	     13.42726095	    -10.02831703	     -2.63899765	     -9.74133466	      0.99692802	     -6.97550024
      0.59133333	     -2.98334996	      6.55300330	     -4.64038941	     -0.73946321	      0.97005513	      0.27902258	     29.50958324	     -4.65577900	      3.30770934	     -4.02801169	     -4.53049535	     -6.78779142	      7.77349394	    -16.75225856	     11.25513131	      6.54643963	     -2.45089793	     13.58287914	     -9.92648522	     -2.52598214	     -9.66654106	      1.29767153	     -6.83668036
      0.59550000	     -3.05927705	      6.31290951	     -4.70953161	     -0.73354558	      0.96952445	      0.27968792	     29.63167255	     -4.32030702	      3.59366623	     -4.76900677	     -5.01928989	     -7.39796804	      7.75147709	    -16.73095088	     11.03999458	      6.38759058	     -3.09131844	     13.70151784	     -9.86179304	     -2.40242531	     -9.57235073	      1.60020467	     -6.69576938
      0.59966667	     -3.12685793	      6.06634645	     -4.78743450	     -0.72759173	      0.96905123	      0.28039031	     29.75063980	     -3.97424822	      3.85963694	     -5.54292729	     -5.51231083	     -8.00321066	      7.72016223	    -16.70453336	     10.82170082	      6.21725731	     -3.76188123	     13.77584437	     -9.82118541	     -2.25792818	     -9.48531023	      1.91347804	     -6.54763060
      0.60383333	     -3.19891563	      5.81074591	     -4.87041097	     -0.72160482	      0.96861639	      0.28111090	     29.88473418	     -3.61650877	      4.09107532	     -6.35784052	     -5.98745969	     -8.56379319	      7.68241595	    -16.66361155	     10.59685634	      6.05832580	     -4.45191529	     13.80994545	     -9.81818827	     -2.10536323	     -9.40340581	      2.22734532	     -6.39943923
      0.60800000	     -3.26058105	      5.56271160	     -4.95481662	     -0.71560171	      0.96823804	      0.28184250	     30.01430174	     -3.26691838	      4.29836156	     -7.19547888	     -6.45759317	     -9.12189210	      7.63306309	    -16.60670740	     10.38410504	      5.88492604	     -5.19987449	     13.80949412	     -9.82707180	     -1.91664515	     -9.31603100	      2.54624236	     -6.24011388
      0.61216667	     -3.27120418	      5.27745207	     -5.05549821	     -0.70955288	      0.96798026	      0.28262612	     30.07629220	     -2.87848679	      4.49504892	     -8.03231352	     -6.88450903	     -9.68657182	      7.49645053	    -16.59347410	     10.13760479	      5.66125227	     -5.97080000	     13.83415420	     -9.75491431	     -1.34301873	     -9.31084656	      2.89650420	     -6.06522468
      0.61633333	     -3.36224358	      5.02989524	     -5.15051357	     -0.70347628	      0.96765282	      0.28337146	     30.26321268	     -2.52647320	      4.61259581	     -8.95388771	     -7.18717050	    -10.00801351	      7.46093520	    -16.48133119	      9.93437155	      5.54501940	     -6.76432334	     13.64225710	     -9.95511324	     -1.22499154	     -9.18096891	      3.23068919	     -5.94678128
      0.62050000	     -3.40903192	      4.78297930	     -5.24374540	     -0.69739160	      0.96743244	      0.28414011	     30.39635598	     -2.17956406	      4.72951026	     -9.87167601	     -7.47902407	    -10.40556040	      7.41924959	    -16.39448537	      9.73327304	      5.40720250	     -7.59418768	     13.47266559	    -10.12104121	     -1.08554560	     -9.09832591	      3.55271204	     -5.79922550
      0.62466667	     -3.47005191	      4.54974157	     -5.33885365	     -0.69131566	      0.96725039	      0.28496322	     30.54171155	     -1.83835665	      4.84640289	    -10.77887186	     -7.84737729	    -10.87662210	      7.32960819	    -16.25736419	      9.54400660	      5.26609724	     -8.48907706	     13.26205957	    -10.22513752	     -0.75505373	     -9.03153837	      3.81197806	     -5.59615543
      0.62883333	     -3.48383875	      4.27070814	     -5.44939768	     -0.68515775	      0.96717161	      0.28577448	     30.62796097	     -1.45968390	      4.91472822	    -11.70909156	     -7.93680069	    -11.13038852	      7.28089234	    -16.17143075	      9.31959900	      5.11138691	     -9.39514040	     12.98798586	    -10.41199810	     -0.56382341	     -8.99921861	      4.18666059	     -5.48087067
      0.63300000	     -3.50873703	      4.01587567	     -5.55238082	     -0.67900332	      0.96713465	      0.28660319	     30.72970484	     -1.10482461	      4.97229262	    -12.64772409	     -8.02231760	    -11.41502244	      7.22524827	    -16.03271702	      9.11737264	      4.94789493	    -10.36563411	     12.65647051	    -10.60348504	     -0.34085663	     -8.94669438	      4.51334219	     -5.33088346
      0.63716667	     -3.47351874	      3.73949261	     -5.67707361	     -0.67284981	      0.96722362	      0.28749719	     30.75150186	     -0.72420751	      5.03074671	    -13.56244809	     -8.08441778	    -11.67484128	      5.95474212	    -15.92732165	      8.89281174	      4.68466525	    -11.38383100	     12.22214647	    -10.75251684	      5.28458348	     -9.00921323	      4.79464833	     -4.94800627
      0.64133333	     -3.48926897	      3.48274886	     -5.75793483	     -0.66665892	      0.96731064	      0.28832051	     30.82571306	     -0.38252713	      5.03523672	    -14.49408846	     -7.98503129	    -11.87219215	      5.94479240	    -15.74553085	      8.68272945	      4.53890736	    -12.45312734	     11.74782189	    -10.96858935	      5.31335806	     -8.95483695	      5.14883716	     -4.95944522
      0.64550000	     -3.49605720	      3.22861155	     -5.85130739	     -0.66047590	      0.96744788	      0.28917981	     30.88837825	     -0.03671239	      5.04761084	    -15.42500201	     -7.83708227	    -12.03828295	      5.92805353	    -15.54001863	      8.47690772	      4.36206333	    -13.57622508	     11.24030359	    -11.17908184	      5.38803891	     -8.93212046	      5.46234307	     -4.88251562
      0.64966667	     -3.48229947	      2.96610146	     -5.94490147	     -0.65427433	      0.96766404	      0.29005369	     30.91288790	      0.31465734	      5.05109733	    -16.33745026	     -7.60816831	    -12.18625915	      5.90921665	    -15.32095464	      8.25962152	      4.14731209	    -14.76195898	     10.68396657	    -11.36463632	      5.49178281	     -8.93005368	      5.78581457	     -4.76994888
      0.65383333	     -3.42550921	      2.72637220	     -6.03883441	     -0.64807545	      0.96796378	      0.29089473	     30.90845659	      0.62738037	      4.99742405	    -17.28968984	     -7.21470198	    -12.10792588	      5.14928734	    -15.12023310	      8.06747010	      3.91743948	    -15.97199611	      9.91742388	    -11.61596869	      9.44502338	     -8.97756654	      6.06095457	     -4.56613174
      0.65800000	     -3.41617569	      2.44869833	     -6.12453081	     -0.64186093	      0.96827390	      0.29181309	     30.89209507	      0.99841635	      5.03318963	    -18.13350087	     -6.89641143	    -12.33678601	      5.14427270	    -14.82173795	      7.81688097	      3.63632742	    -17.28562052	      9.26860875	    -11.72723679	      9.48287425	     -8.96830006	      6.40857943	     -4.49171048
      0.66216667	     -3.41250911	      2.20568837	     -6.20148123	     -0.63567671	      0.96858333	      0.29270211	     30.90603542	      1.32253266	      5.00461628	    -19.02228692	     -6.47387160	    -12.37866920	      5.10113020	    -14.46336022	      7.58794710	      3.29809149	    -18.67931592	      8.57495732	    -11.72865453	      9.75876408	     -8.94267199	      6.69480119	     -4.33720355
      0.66633333	     -3.34288067	      1.92111159	     -6.28159676	     -0.62946653	      0.96907110	      0.29363132	     30.78423318	      1.68882474	      5.03137056	    -19.79825266	     -6.02772006	    -12.52406176	      5.09017336	    -14.16637181	      7.31663415	      2.97162846	    -20.07461950	      7.72819001	    -11.82336832	      9.86150792	     -9.01086086	      7.03351088	     -4.26511545
      0.67050000	     -3.26834626	      1.66425861	     -6.35979338	     -0.62328773	      0.96955721	      0.29455194	     30.67552262	      2.01893109	      5.01007171	    -20.60966300	     -5.47460866	    -12.48979810	      4.26967541	    -13.82844645	      7.05586423	      2.57818790	    -21.52722398	      6.74255140	    -11.88169776	     14.76371227	     -9.07929768	      7.31367449	     -4.10020405
      0.67466667	     -3.23396983	      1.39324639	     -6.42124752	     -0.61711378	      0.97005163	      0.29548631	     30.56068393	      2.36758203	      5.02085080	    -21.32678592	     -4.97332207	    -12.59596799	      4.26498987	    -13.40364847	      6.75964019	      2.17209609	    -23.05813157	      5.81414270	    -11.86327077	     14.81233675	     -9.08840651	      7.63181100	     -4.03404082
